<?xml version="1.0" encoding="UTF-8" standalone="no"?>
<svg
   xmlns:dc="http://purl.org/dc/elements/1.1/"
   xmlns:cc="http://creativecommons.org/ns#"
   xmlns:rdf="http://www.w3.org/1999/02/22-rdf-syntax-ns#"
   xmlns:svg="http://www.w3.org/2000/svg"
   xmlns="http://www.w3.org/2000/svg"
   xmlns:sodipodi="http://sodipodi.sourceforge.net/DTD/sodipodi-0.dtd"
   xmlns:inkscape="http://www.inkscape.org/namespaces/inkscape"
   class="logo is-hidden-mobile"
   viewBox="0 0 121.76517 13.17439"
   width="240"
   height="25"
   version="1.1"
   id="svg15"
   sodipodi:docname="logo.svg"
   inkscape:version="0.92.3 (2405546, 2018-03-11)">
  <metadata
     id="metadata19">
    <rdf:RDF>
      <cc:Work
         rdf:about="">
        <dc:format>image/svg+xml</dc:format>
        <dc:type
           rdf:resource="http://purl.org/dc/dcmitype/StillImage" />
      </cc:Work>
    </rdf:RDF>
  </metadata>
  <sodipodi:namedview
     pagecolor="#ffffff"
     bordercolor="#666666"
     borderopacity="1"
     objecttolerance="10"
     gridtolerance="10"
     guidetolerance="10"
     inkscape:pageopacity="0"
     inkscape:pageshadow="2"
     inkscape:window-width="1857"
     inkscape:window-height="1025"
     id="namedview17"
     showgrid="false"
     inkscape:zoom="4.0305086"
     inkscape:cx="76.956976"
     inkscape:cy="-7.7073896"
     inkscape:window-x="1983"
     inkscape:window-y="27"
     inkscape:window-maximized="1"
     inkscape:current-layer="svg15" />
  <defs
     id="defs48">
    <clipPath
       id="clip1">
      <path
         d="M 0,742.20703 H 398 V 792 H 0 Z m 0,0"
         id="path2" />
    </clipPath>
    <clipPath
       id="clip2">
      <path
         d="m 414,745 h 46.21484 v 8 H 414 Z m 0,0"
         id="path5" />
    </clipPath>
  </defs>
  <g
     transform="translate(-50.242413,-145.26995)"
     id="layer1"
     style="fill:#ffffff;fill-opacity:1">
    <g
       id="surface1"
       transform="matrix(0.26458333,0,0,0.26458333,50.242413,-51.10566)"
       style="fill:#ffffff;fill-opacity:1">
      <g
         clip-path="url(#clip1)"
         id="g12"
         style="clip-rule:nonzero;fill:#ffffff;fill-opacity:1">
        <path
           style="fill-opacity:1;fill-rule:nonzero;stroke:none;fill:#ffffff"
           d="m 138.80078,754.20703 h -5.70312 v 35.91406 h 5.70312 z M 0,790.11719 H 5.699219 V 744.38672 H 0 Z m 24.515625,-47.91016 v 47.91016 h 5.699219 V 756.03125 L 64.542969,792 v -7.96875 z m 40.027344,35.08594 V 744.38672 H 58.84375 v 27.0039 z m 23.933593,-22.04688 c 0,-4.0039 4.003907,-6.49218 7.640626,-6.49218 3.460937,0 5.644532,1.45703 7.339842,4.30468 l 4.55078,-2.72656 c -2.48828,-4.42969 -6.67187,-6.91406 -11.765622,-6.91406 -6.914063,0 -13.464844,4.42578 -13.464844,11.82812 0,6.36719 4.730468,9.33985 9.945312,11.58203 l 3.15625,1.33594 c 3.941406,1.63672 7.882814,3.75781 7.882814,8.67188 0,4.79297 -3.51953,8.91797 -8.429689,8.91797 -4.914062,0 -8.917969,-3.64063 -8.855469,-8.67579 l -5.761718,1.21485 c 0.96875,7.33984 6.730468,12.79687 14.132812,12.79687 8.187504,0 14.617184,-5.94531 14.617184,-14.2539 0,-7.64063 -4.85546,-11.21875 -11.343746,-13.76563 l -3.273438,-1.27734 c -2.851562,-1.08985 -6.371094,-2.96875 -6.371094,-6.54688 m 61.179688,-5.64453 v -5.21484 h -27.41406 v 5.21484 z m 44.125,40.51563 h 6.125 l -21.83594,-47.66797 -21.83594,47.66797 h 6.12891 l 15.70703,-35.17578 8.12891,18.5 h -11.08985 l -2.35156,5.21484 h 15.80469 z m 60.46094,-22.86328 c 0,-12.85938 -10.49219,-22.86719 -23.23047,-22.86719 h -16.85938 v 45.73047 h 11.82032 l 0.0664,-35.66016 h 2.78906 c 7.64454,0 13.04297,4.60938 13.04297,12.79688 0,8.08593 -4.99609,12.01953 -11.21875,12.68359 v 10.17969 h 0.35938 c 12.67578,0 23.23047,-10.00391 23.23047,-22.86328 m 54.78515,22.86328 -11.62109,-17.21485 c 6.49219,-1.15234 7.25391,-8.13672 7.25391,-14.4414 0,-9.76563 -6.85157,-14.07422 -15.88672,-14.07422 H 271 v 45.73047 h 11.88672 v -36.63282 h 6.30078 c 3.87891,0 4.10937,3.97657 4.10937,7.01563 0,4.55859 -2.63671,6.46875 -6.23828,6.60156 v 5.59375 l 9.92188,17.42188 z m 14.54688,0 h 11.88672 v -45.73047 h -11.88672 z m 55.70312,-3.03125 -16.82031,-42.69922 h -12.92187 l 19.23046,45.73047 h 9.21875 z m 18.23828,-42.69922 h -12.92187 l -8.5625,21.43359 5.875,15.10938 15.60937,-36.54297"
           id="path10" />
      </g>
      <path
         style="fill-opacity:1;fill-rule:nonzero;stroke:none;fill:#ffffff"
         d="m 409.4375,763.81641 -3.08203,7.1875 h 32.86328 l 5.97656,-7.1875 H 409.4375"
         id="path14" />
      <path
         style="fill-opacity:1;fill-rule:nonzero;stroke:none;fill:#ffffff"
         d="m 398.62891,789.00781 h 25.61328 l 6.02734,-7.24609 h -28.53516 l -3.10546,7.24609"
         id="path16" />
      <g
         clip-path="url(#clip2)"
         id="g20"
         style="clip-rule:nonzero;fill:#ffffff;fill-opacity:1">
        <path
           style="fill-opacity:1;fill-rule:nonzero;stroke:none;fill:#ffffff"
           d="M 417.19141,745.75781 414.07812,753 h 40.10938 l 6.02734,-7.24219 h -43.02343"
           id="path18" />
      </g>
    </g>
  </g>
</svg>
