<?xml version="1.0" encoding="UTF-8" standalone="no"?>
<svg
   xmlns:dc="http://purl.org/dc/elements/1.1/"
   xmlns:cc="http://creativecommons.org/ns#"
   xmlns:rdf="http://www.w3.org/1999/02/22-rdf-syntax-ns#"
   xmlns:svg="http://www.w3.org/2000/svg"
   xmlns="http://www.w3.org/2000/svg"
   xmlns:sodipodi="http://sodipodi.sourceforge.net/DTD/sodipodi-0.dtd"
   xmlns:inkscape="http://www.inkscape.org/namespaces/inkscape"
   class="logo is-hidden-mobile"
   viewBox="0 0 46.121474 11.582081"
   width="90.905746"
   height="21.978401"
   version="1.1"
   id="svg15"
   sodipodi:docname="text.svg"
   inkscape:version="0.92.3 (2405546, 2018-03-11)">
  <metadata
     id="metadata19">
    <rdf:RDF>
      <cc:Work
         rdf:about="">
        <dc:format>image/svg+xml</dc:format>
        <dc:type
           rdf:resource="http://purl.org/dc/dcmitype/StillImage" />
        <dc:title />
      </cc:Work>
    </rdf:RDF>
  </metadata>
  <sodipodi:namedview
     pagecolor="#ffffff"
     bordercolor="#666666"
     borderopacity="1"
     objecttolerance="10"
     gridtolerance="10"
     guidetolerance="10"
     inkscape:pageopacity="0"
     inkscape:pageshadow="2"
     inkscape:window-width="1857"
     inkscape:window-height="1025"
     id="namedview17"
     showgrid="false"
     inkscape:pagecheckerboard="true"
     fit-margin-top="0"
     fit-margin-left="0"
     fit-margin-right="0"
     fit-margin-bottom="0"
     inkscape:zoom="5.7"
     inkscape:cx="-28.215072"
     inkscape:cy="12.115399"
     inkscape:window-x="1983"
     inkscape:window-y="27"
     inkscape:window-maximized="1"
     inkscape:current-layer="svg15" />
  <defs
     id="defs48">
    <clipPath
       id="clip1">
      <path
         d="M 0,742.20703 H 398 V 792 H 0 Z m 0,0"
         id="path2"
         inkscape:connector-curvature="0" />
    </clipPath>
    <clipPath
       id="clip2">
      <path
         d="m 414,745 h 46.21484 v 8 H 414 Z m 0,0"
         id="path5"
         inkscape:connector-curvature="0" />
    </clipPath>
  </defs>
  <g
     aria-label="LADEPREISE"
     style="font-style:normal;font-weight:normal;font-size:13.17438984px;line-height:125%;font-family:sans-serif;letter-spacing:0px;word-spacing:0px;fill:#ffffff;fill-opacity:1;stroke:none;stroke-width:0.52697557px;stroke-linecap:butt;stroke-linejoin:miter;stroke-opacity:1"
     id="text863">
    <path
       d="m 2.3627833,4.9999443 q 0.2192218,0 0.3625592,0.1433374 0.151769,0.1349057 0.151769,0.3541275 0,0.2107903 -0.151769,0.3541276 -0.1433374,0.1349058 -0.3625592,0.1349058 h -2.74027297 q -0.21922184,0 -0.37099081,-0.1433374 -0.14333735,-0.151769 -0.14333735,-0.3709908 V 0.59864432 q 0,-0.21922184 0.15176896,-0.3625592 0.15176897,-0.15176896 0.38785402,-0.15176896 0.21079023,0 0.3625592,0.15176896 0.15176896,0.14333736 0.15176896,0.3625592 V 4.9999443 Z"
       style="font-style:normal;font-variant:normal;font-weight:bold;font-stretch:normal;font-size:8.43160915px;font-family:Quicksand;-inkscape-font-specification:'Quicksand, Bold';font-variant-ligatures:normal;font-variant-caps:normal;font-variant-numeric:normal;font-feature-settings:normal;text-align:start;writing-mode:lr-tb;text-anchor:start;fill:#ffffff;fill-opacity:1;stroke-width:0.52697557px"
       id="path849" />
    <path
       d="m 8.4799158,5.3287771 q 0.042158,0.1096109 0.042158,0.2023586 0,0.2192218 -0.1433373,0.3625592 -0.1433374,0.1349057 -0.3288328,0.1349057 -0.1517689,0 -0.2782431,-0.092748 Q 7.6536181,5.8431052 7.5861652,5.6829046 L 7.1477216,4.6626799 H 4.635102 L 4.1966584,5.6913362 q -0.059021,0.1602006 -0.1854954,0.2529483 -0.1180426,0.084316 -0.2613799,0.084316 -0.2192219,0 -0.3372644,-0.1180425 -0.1096109,-0.1180425 -0.1096109,-0.3204012 0,-0.075884 0.025295,-0.1602005 L 5.4276733,0.38785409 Q 5.4951262,0.2192219 5.6300319,0.1264742 5.7649377,0.0337265 5.9335698,0.05058972 q 0.151769,0 0.2782431,0.0927477 0.1349058,0.0843161 0.1939271,0.24451667 z M 5.0482509,3.6930449 H 6.7345727 L 5.8829802,1.7200483 Z"
       style="font-style:normal;font-variant:normal;font-weight:bold;font-stretch:normal;font-size:8.43160915px;font-family:Quicksand;-inkscape-font-specification:'Quicksand, Bold';font-variant-ligatures:normal;font-variant-caps:normal;font-variant-numeric:normal;font-feature-settings:normal;text-align:start;writing-mode:lr-tb;text-anchor:start;fill:#ffffff;fill-opacity:1;stroke-width:0.52697557px"
       id="path851" />
    <path
       d="m 11.765476,0.08431616 q 0.792572,0 1.357489,0.39628563 0.57335,0.38785402 0.868456,1.06238271 0.303538,0.6660972 0.303538,1.4923949 0,0.8262977 -0.303538,1.5008264 -0.295106,0.6660971 -0.868456,1.0623827 -0.564917,0.3878541 -1.357489,0.3878541 H 9.7503218 q -0.2192219,0 -0.3709908,-0.1433374 Q 9.2359936,5.6913362 9.2359936,5.4721144 V 0.59864432 q 0,-0.21922184 0.1433374,-0.3625592 Q 9.5310999,0.08431616 9.7503218,0.08431616 Z M 11.68116,5.0168075 q 0.758845,0 1.138267,-0.5564862 0.379423,-0.5649178 0.379423,-1.4249419 0,-0.8600242 -0.387854,-1.4165104 Q 12.431573,1.0539512 11.68116,1.0539512 h -1.391215 v 3.9628563 z"
       style="font-style:normal;font-variant:normal;font-weight:bold;font-stretch:normal;font-size:8.43160915px;font-family:Quicksand;-inkscape-font-specification:'Quicksand, Bold';font-variant-ligatures:normal;font-variant-caps:normal;font-variant-numeric:normal;font-feature-settings:normal;text-align:start;writing-mode:lr-tb;text-anchor:start;fill:#ffffff;fill-opacity:1;stroke-width:0.52697557px"
       id="path853" />
    <path
       d="m 18.602194,5.0168075 q 0.219221,0 0.362559,0.151769 0.151769,0.1433373 0.151769,0.3372643 0,0.2107903 -0.151769,0.345696 -0.143338,0.1349058 -0.362559,0.1349058 h -2.82459 q -0.219221,0 -0.37099,-0.1433374 -0.143338,-0.151769 -0.143338,-0.3709908 V 0.59864432 q 0,-0.21922184 0.143338,-0.3625592 0.151769,-0.15176896 0.37099,-0.15176896 h 2.82459 q 0.219221,0 0.362559,0.14333735 0.151769,0.13490575 0.151769,0.35412759 0,0.21079023 -0.143338,0.34569597 -0.143337,0.12647413 -0.37099,0.12647413 h -2.284967 v 1.4333736 h 1.905544 q 0.219222,0 0.362559,0.1433373 0.151769,0.1349058 0.151769,0.3541276 0,0.2107902 -0.143337,0.345696 -0.143337,0.1264741 -0.370991,0.1264741 h -1.905544 v 1.5598477 z"
       style="font-style:normal;font-variant:normal;font-weight:bold;font-stretch:normal;font-size:8.43160915px;font-family:Quicksand;-inkscape-font-specification:'Quicksand, Bold';font-variant-ligatures:normal;font-variant-caps:normal;font-variant-numeric:normal;font-feature-settings:normal;text-align:start;writing-mode:lr-tb;text-anchor:start;fill:#ffffff;fill-opacity:1;stroke-width:0.52697557px"
       id="path855" />
    <path
       d="m 22.525132,0.08431616 q 0.430012,0 0.817866,0.26137988 0.387854,0.25294828 0.623939,0.69139196 0.236086,0.4300121 0.236086,0.9443402 0,0.5058966 -0.236086,0.9443402 -0.236085,0.4384437 -0.623939,0.6998236 -0.387854,0.2529483 -0.817866,0.2529483 h -1.4671 v 1.5935741 q 0,0.2276535 -0.134905,0.3709908 -0.134906,0.1433374 -0.354128,0.1433374 -0.21079,0 -0.345696,-0.1433374 -0.134906,-0.151769 -0.134906,-0.3709908 V 0.59864432 q 0,-0.21922184 0.143338,-0.3625592 0.151769,-0.15176896 0.37099,-0.15176896 z m 0,2.83302064 q 0.160201,0 0.31197,-0.1349057 0.1602,-0.1349058 0.252948,-0.345696 0.101179,-0.2192218 0.101179,-0.4553069 0,-0.236085 -0.101179,-0.4468753 Q 22.997302,1.3153311 22.837102,1.188857 22.685333,1.0539512 22.525132,1.0539512 h -1.4671 v 1.8633856 z"
       style="font-style:normal;font-variant:normal;font-weight:bold;font-stretch:normal;font-size:8.43160915px;font-family:Quicksand;-inkscape-font-specification:'Quicksand, Bold';font-variant-ligatures:normal;font-variant-caps:normal;font-variant-numeric:normal;font-feature-settings:normal;text-align:start;writing-mode:lr-tb;text-anchor:start;fill:#ffffff;fill-opacity:1;stroke-width:0.52697557px"
       id="path857" />
    <path
       d="m 29.805958,5.1601449 q 0.109611,0.067453 0.168633,0.1770638 0.06745,0.1096109 0.06745,0.2276534 0,0.151769 -0.10118,0.2782431 -0.126474,0.151769 -0.387854,0.151769 -0.202358,0 -0.370991,-0.092748 -0.607075,-0.345696 -0.607075,-1.4080788 0,-0.3035379 -0.202359,-0.4806017 -0.193927,-0.1770638 -0.564918,-0.1770638 h -1.576711 v 1.6357322 q 0,0.2276535 -0.126474,0.3709908 -0.118042,0.1433374 -0.320401,0.1433374 -0.244517,0 -0.430012,-0.1433374 -0.177064,-0.151769 -0.177064,-0.3709908 V 0.59864432 q 0,-0.21922184 0.143337,-0.3625592 0.151769,-0.15176896 0.370991,-0.15176896 h 2.428304 q 0.438443,0 0.826297,0.23608505 0.387854,0.23608506 0.615508,0.64923391 0.236085,0.41314888 0.236085,0.92747698 0,0.4215805 -0.227654,0.8262977 -0.227653,0.3962857 -0.590212,0.6323707 0.531191,0.3709908 0.581781,0.9949299 0.02529,0.1349057 0.02529,0.2613799 0.03373,0.2613799 0.06745,0.3794224 0.03373,0.1096109 0.151769,0.1686322 z M 28.077479,2.9679265 q 0.151769,0 0.295106,-0.1433374 0.143337,-0.1433373 0.236085,-0.3794224 0.09275,-0.2445166 0.09275,-0.5227597 0,-0.2360851 -0.09275,-0.4300121 Q 28.515922,1.2900363 28.372585,1.1719937 28.229248,1.0539512 28.077479,1.0539512 h -1.846523 v 1.9139753 z"
       style="font-style:normal;font-variant:normal;font-weight:bold;font-stretch:normal;font-size:8.43160915px;font-family:Quicksand;-inkscape-font-specification:'Quicksand, Bold';font-variant-ligatures:normal;font-variant-caps:normal;font-variant-numeric:normal;font-feature-settings:normal;text-align:start;writing-mode:lr-tb;text-anchor:start;fill:#ffffff;fill-opacity:1;stroke-width:0.52697557px"
       id="path859" />
    <path
       d="m 34.312654,5.0168075 q 0.219222,0 0.362559,0.151769 0.151769,0.1433373 0.151769,0.3372643 0,0.2107903 -0.151769,0.345696 -0.143337,0.1349058 -0.362559,0.1349058 h -2.824589 q -0.219222,0 -0.370991,-0.1433374 -0.143337,-0.151769 -0.143337,-0.3709908 V 0.59864432 q 0,-0.21922184 0.143337,-0.3625592 0.151769,-0.15176896 0.370991,-0.15176896 h 2.824589 q 0.219222,0 0.362559,0.14333735 0.151769,0.13490575 0.151769,0.35412759 0,0.21079023 -0.143337,0.34569597 -0.143337,0.12647413 -0.370991,0.12647413 h -2.284966 v 1.4333736 h 1.905544 q 0.219222,0 0.362559,0.1433373 0.151769,0.1349058 0.151769,0.3541276 0,0.2107902 -0.143337,0.345696 -0.143338,0.1264741 -0.370991,0.1264741 h -1.905544 v 1.5598477 z"
       style="font-style:normal;font-variant:normal;font-weight:bold;font-stretch:normal;font-size:8.43160915px;font-family:Quicksand;-inkscape-font-specification:'Quicksand, Bold';font-variant-ligatures:normal;font-variant-caps:normal;font-variant-numeric:normal;font-feature-settings:normal;text-align:start;writing-mode:lr-tb;text-anchor:start;fill:#ffffff;fill-opacity:1;stroke-width:0.52697557px"
       id="path861" />
    <path
       d="m 36.852807,5.4721144 q 0,0.2192218 -0.1602,0.3709908 -0.160201,0.1433374 -0.370991,0.1433374 -0.227654,0 -0.379423,-0.1433374 -0.143337,-0.151769 -0.143337,-0.3709908 V 0.59864432 q 0,-0.21922184 0.151769,-0.3625592 0.151769,-0.15176896 0.387854,-0.15176896 0.21079,0 0.362559,0.15176896 0.151769,0.14333736 0.151769,0.3625592 z"
       style="font-style:normal;font-variant:normal;font-weight:bold;font-stretch:normal;font-size:8.43160915px;font-family:Quicksand;-inkscape-font-specification:'Quicksand, Bold';font-variant-ligatures:normal;font-variant-caps:normal;font-variant-numeric:normal;font-feature-settings:normal;text-align:start;writing-mode:lr-tb;text-anchor:start;fill:#ffffff;fill-opacity:1;stroke-width:0.52697557px"
       id="path863" />
    <path
       d="m 40.017955,6.0707587 q -0.607076,0 -1.079246,-0.151769 -0.47217,-0.151769 -0.885319,-0.5143282 -0.227653,-0.2023586 -0.227653,-0.4468753 0,-0.193927 0.143337,-0.3372643 0.143338,-0.151769 0.345696,-0.151769 0.160201,0 0.286675,0.1011793 0.337264,0.2782431 0.657665,0.4047173 0.320402,0.1264741 0.758845,0.1264741 0.47217,0 0.809435,-0.2107902 0.345696,-0.2107903 0.345696,-0.5227598 0,-0.3794224 -0.337265,-0.5902126 -0.337264,-0.2192219 -1.070814,-0.3288328 -1.846522,-0.2698115 -1.846522,-1.7200483 0,-0.5311913 0.278243,-0.91904535 Q 38.474971,0.41314892 38.955572,0.2107903 39.436174,6.6757202e-8 40.026387,6.6757202e-8 q 0.531191,0 0.99493,0.160200573242798 0.47217,0.16020057 0.784139,0.42158046 0.244517,0.19392701 0.244517,0.4468753 0,0.193927 -0.143337,0.345696 -0.143338,0.1433373 -0.337265,0.1433373 -0.126474,0 -0.227653,-0.075885 Q 41.122496,1.2647414 40.72621,1.1214041 40.338356,0.96963512 40.026387,0.96963512 q -0.531192,0 -0.826298,0.20235858 -0.286675,0.193927 -0.286675,0.5143282 0,0.3625592 0.295107,0.5480546 0.303538,0.1854954 0.94434,0.3035379 0.725118,0.1264742 1.15513,0.3288328 0.438444,0.193927 0.657666,0.539623 0.219222,0.3372643 0.219222,0.9021821 0,0.5311914 -0.303538,0.9359087 -0.295106,0.3962856 -0.792571,0.6155074 -0.497465,0.2107903 -1.070815,0.2107903 z"
       style="font-style:normal;font-variant:normal;font-weight:bold;font-stretch:normal;font-size:8.43160915px;font-family:Quicksand;-inkscape-font-specification:'Quicksand, Bold';font-variant-ligatures:normal;font-variant-caps:normal;font-variant-numeric:normal;font-feature-settings:normal;text-align:start;writing-mode:lr-tb;text-anchor:start;fill:#ffffff;fill-opacity:1;stroke-width:0.52697557px"
       id="path865" />
    <path
       d="m 46.498964,5.0168075 q 0.219222,0 0.362559,0.151769 0.151769,0.1433373 0.151769,0.3372643 0,0.2107903 -0.151769,0.345696 -0.143337,0.1349058 -0.362559,0.1349058 h -2.824589 q -0.219222,0 -0.370991,-0.1433374 -0.143337,-0.151769 -0.143337,-0.3709908 V 0.59864432 q 0,-0.21922184 0.143337,-0.3625592 0.151769,-0.15176896 0.370991,-0.15176896 h 2.824589 q 0.219222,0 0.362559,0.14333735 0.151769,0.13490575 0.151769,0.35412759 0,0.21079023 -0.143337,0.34569597 -0.143338,0.12647413 -0.370991,0.12647413 h -2.284966 v 1.4333736 h 1.905544 q 0.219221,0 0.362559,0.1433373 0.151769,0.1349058 0.151769,0.3541276 0,0.2107902 -0.143338,0.345696 -0.143337,0.1264741 -0.37099,0.1264741 h -1.905544 v 1.5598477 z"
       style="font-style:normal;font-variant:normal;font-weight:bold;font-stretch:normal;font-size:8.43160915px;font-family:Quicksand;-inkscape-font-specification:'Quicksand, Bold';font-variant-ligatures:normal;font-variant-caps:normal;font-variant-numeric:normal;font-feature-settings:normal;text-align:start;writing-mode:lr-tb;text-anchor:start;fill:#ffffff;fill-opacity:1;stroke-width:0.52697557px"
       id="path867" />
  </g>
  <g
     aria-label="BY CHARGEPRICE"
     style="font-style:normal;font-weight:normal;font-size:13.17438984px;line-height:125%;font-family:sans-serif;letter-spacing:0px;word-spacing:0px;fill:#ffffff;fill-opacity:1;stroke:none;stroke-width:0.52697557px;stroke-linecap:butt;stroke-linejoin:miter;stroke-opacity:1"
     id="text871">
    <path
       d="m 1.484533,9.3786205 q 0.309159,0.1068004 0.5058965,0.3541276 0.2023587,0.2417061 0.2023587,0.6351809 0,0.623939 -0.3653698,0.893751 -0.3597486,0.26419 -0.88250839,0.26419 h -1.4446157 q -0.11242145,0 -0.19111647,-0.07869 -0.078695,-0.07869 -0.078695,-0.191116 V 7.8609309 q 0,-0.1124215 0.078695,-0.1911165 0.078695,-0.078695 0.19111647,-0.078695 h 1.4446157 q 0.51151759,0 0.77570809,0.2529483 0.2698114,0.2529482 0.2698114,0.7307394 0,0.2698115 -0.1292846,0.4834123 Q 1.7318602,9.2661991 1.484533,9.3786205 Z M 1.4114591,8.6591232 q 0,-0.2641904 -0.1461479,-0.3990962 Q 1.1247843,8.1195002 0.86621499,8.1195002 h -1.06238275 v 1.0961092 h 1.0736249 Q 1.1079211,9.2099883 1.2596901,9.0694615 1.4114591,8.9233136 1.4114591,8.6591232 Z M 0.93928894,11.008732 q 0.30915896,0 0.49465436,-0.15739 0.1854954,-0.163012 0.1854954,-0.483413 0,-0.6239387 -0.70825512,-0.6239387 h -1.10735134 v 1.2647417 z"
       style="font-style:normal;font-variant:normal;font-weight:500;font-stretch:normal;font-size:5.62107277px;line-height:126.99999809%;font-family:Quicksand;-inkscape-font-specification:'Quicksand, Medium';font-variant-ligatures:normal;font-variant-caps:normal;font-variant-numeric:normal;font-feature-settings:normal;text-align:start;letter-spacing:0.16336243px;word-spacing:0px;writing-mode:lr-tb;text-anchor:start;fill:#ffffff;fill-opacity:1;stroke-width:0.52697557px"
       id="path822" />
    <path
       d="m 5.6327092,7.8440677 q 0,0.084316 -0.05059,0.1686321 L 4.3735889,9.7158849 v 1.5401741 q 0,0.112421 -0.078695,0.191116 -0.073074,0.07869 -0.1798743,0.07869 -0.1124215,0 -0.1911165,-0.07869 -0.078695,-0.07869 -0.078695,-0.191116 V 9.6709163 L 2.6422985,8.0464263 Q 2.5636035,7.945247 2.5636035,7.8440677 q 0,-0.1124215 0.089937,-0.1911165 0.089937,-0.078695 0.1967376,-0.078695 0.1292847,0 0.2192218,0.1236636 L 4.1262617,9.1593987 5.1436759,7.7035408 q 0.089937,-0.1292846 0.2248429,-0.1292846 0.1068004,0 0.1854954,0.078695 0.078695,0.078695 0.078695,0.1911165 z"
       style="font-style:normal;font-variant:normal;font-weight:500;font-stretch:normal;font-size:5.62107277px;line-height:126.99999809%;font-family:Quicksand;-inkscape-font-specification:'Quicksand, Medium';font-variant-ligatures:normal;font-variant-caps:normal;font-variant-numeric:normal;font-feature-settings:normal;text-align:start;letter-spacing:0.16336243px;word-spacing:0px;writing-mode:lr-tb;text-anchor:start;fill:#ffffff;fill-opacity:1;stroke-width:0.52697557px"
       id="path824" />
    <path
       d="m 10.880244,7.8215834 q 0.134906,0.073074 0.134906,0.2248429 0,0.1011793 -0.06745,0.1854954 -0.06745,0.089937 -0.185496,0.089937 -0.07869,0 -0.151769,-0.039347 -0.348506,-0.1967375 -0.7532233,-0.1967375 -0.4215805,0 -0.7476027,0.1854954 Q 8.7892048,8.4567646 8.6093305,8.794029 8.4294562,9.1256723 8.4294562,9.5584949 q 0,0.4665491 0.1854954,0.8038131 0.1854954,0.337265 0.5115176,0.517139 0.3260222,0.174253 0.7307395,0.174253 0.4159593,0 0.7532233,-0.202358 0.06745,-0.03373 0.146148,-0.03373 0.123664,0 0.196738,0.09556 0.06745,0.08432 0.06745,0.179875 0,0.06745 -0.03935,0.129284 -0.03373,0.05621 -0.09556,0.08994 -0.219222,0.123663 -0.494654,0.196737 -0.269812,0.07307 -0.5340023,0.07307 -0.5452441,0 -1.0061721,-0.241706 Q 8.3957297,11.098669 8.1202972,10.637741 7.8504857,10.176813 7.8504857,9.5584949 q 0,-0.5677284 0.2585693,-1.0230353 0.2641904,-0.460928 0.7194973,-0.7194973 0.460928,-0.2641904 1.0286564,-0.2641904 0.5452443,0 1.0230353,0.2698115 z"
       style="font-style:normal;font-variant:normal;font-weight:500;font-stretch:normal;font-size:5.62107277px;line-height:126.99999809%;font-family:Quicksand;-inkscape-font-specification:'Quicksand, Medium';font-variant-ligatures:normal;font-variant-caps:normal;font-variant-numeric:normal;font-feature-settings:normal;text-align:start;letter-spacing:0.16336243px;word-spacing:0px;writing-mode:lr-tb;text-anchor:start;fill:#ffffff;fill-opacity:1;stroke-width:0.52697557px"
       id="path826" />
    <path
       d="m 14.661733,7.5911194 q 0.123664,0 0.202359,0.078695 0.07869,0.073074 0.07869,0.1911165 v 3.3895071 q -0.0056,0.118042 -0.08432,0.196737 -0.07869,0.07869 -0.202358,0.07869 -0.112422,0 -0.196738,-0.07869 -0.07869,-0.07869 -0.07869,-0.196737 V 9.7945799 h -1.995481 v 1.4558581 q 0,0.118042 -0.08432,0.196737 -0.08432,0.07869 -0.196737,0.07869 -0.123664,0 -0.202359,-0.07869 -0.07307,-0.07869 -0.07307,-0.196737 V 7.8609309 q 0,-0.1124215 0.07869,-0.1911165 0.0787,-0.078695 0.202359,-0.078695 0.112421,0 0.191116,0.078695 0.08432,0.078695 0.08432,0.1911165 v 1.4165103 h 1.995481 V 7.8609309 q 0,-0.1124215 0.08432,-0.1911165 0.08432,-0.078695 0.196738,-0.078695 z"
       style="font-style:normal;font-variant:normal;font-weight:500;font-stretch:normal;font-size:5.62107277px;line-height:126.99999809%;font-family:Quicksand;-inkscape-font-specification:'Quicksand, Medium';font-variant-ligatures:normal;font-variant-caps:normal;font-variant-numeric:normal;font-feature-settings:normal;text-align:start;letter-spacing:0.16336243px;word-spacing:0px;writing-mode:lr-tb;text-anchor:start;fill:#ffffff;fill-opacity:1;stroke-width:0.52697557px"
       id="path828" />
    <path
       d="m 19.056357,11.177364 q 0.01686,0.05059 0.01686,0.1068 0,0.112422 -0.07869,0.185496 -0.07307,0.07307 -0.174253,0.07307 -0.07869,0 -0.146148,-0.04497 -0.06183,-0.05059 -0.101179,-0.134906 l -0.348507,-0.826297 h -1.736911 l -0.342886,0.831918 q -0.02811,0.08432 -0.09556,0.129285 -0.06183,0.04497 -0.140527,0.04497 -0.118042,0 -0.179874,-0.06183 -0.06183,-0.06183 -0.06183,-0.168632 0,-0.02248 0.01124,-0.08994 l 1.433374,-3.4738226 q 0.03935,-0.089937 0.1068,-0.1349057 0.07307,-0.05059 0.163011,-0.039347 0.08432,0 0.151769,0.044969 0.06745,0.044969 0.09556,0.1292847 z m -2.35523,-1.15232 h 1.30971 L 17.353172,8.4511435 Z"
       style="font-style:normal;font-variant:normal;font-weight:500;font-stretch:normal;font-size:5.62107277px;line-height:126.99999809%;font-family:Quicksand;-inkscape-font-specification:'Quicksand, Medium';font-variant-ligatures:normal;font-variant-caps:normal;font-variant-numeric:normal;font-feature-settings:normal;text-align:start;letter-spacing:0.16336243px;word-spacing:0px;writing-mode:lr-tb;text-anchor:start;fill:#ffffff;fill-opacity:1;stroke-width:0.52697557px"
       id="path830" />
    <path
       d="m 22.803592,11.076185 q 0.05621,0.03935 0.08994,0.101179 0.03373,0.05621 0.03373,0.118042 0,0.118043 -0.07869,0.174254 -0.07307,0.05621 -0.179874,0.05621 -0.106801,0 -0.179875,-0.04497 -0.168632,-0.09556 -0.275432,-0.309159 -0.106801,-0.213601 -0.106801,-0.62956 0,-0.281054 -0.168632,-0.41596 -0.168632,-0.1349055 -0.438443,-0.1349055 h -1.135457 v 1.2647415 q 0,0.118042 -0.06745,0.196737 -0.06745,0.07307 -0.174253,0.07307 -0.129285,0 -0.224843,-0.07869 -0.08994,-0.07869 -0.08994,-0.191116 V 7.8609309 q 0,-0.1124215 0.07869,-0.1911165 0.07869,-0.078695 0.191116,-0.078695 h 1.579522 q 0.303538,0 0.556486,0.1517689 0.252948,0.1461479 0.404717,0.4103384 0.151769,0.2585693 0.151769,0.5845915 0,0.3147801 -0.168632,0.5902127 -0.168632,0.2698115 -0.432823,0.4047172 0.20798,0.1068004 0.326022,0.2979169 0.123664,0.191116 0.134906,0.444065 0.02248,0.320401 0.05059,0.438443 0.02811,0.112422 0.123663,0.163012 z M 21.645651,9.5247684 q 0.140527,-0.011242 0.264191,-0.1124214 0.129285,-0.1011793 0.20798,-0.2698115 0.07869,-0.1742533 0.07869,-0.3878541 0,-0.2698114 -0.168633,-0.4553068 -0.163011,-0.1911165 -0.399096,-0.1911165 h -1.264741 v 1.4165103 z"
       style="font-style:normal;font-variant:normal;font-weight:500;font-stretch:normal;font-size:5.62107277px;line-height:126.99999809%;font-family:Quicksand;-inkscape-font-specification:'Quicksand, Medium';font-variant-ligatures:normal;font-variant-caps:normal;font-variant-numeric:normal;font-feature-settings:normal;text-align:start;letter-spacing:0.16336243px;word-spacing:0px;writing-mode:lr-tb;text-anchor:start;fill:#ffffff;fill-opacity:1;stroke-width:0.52697557px"
       id="path832" />
    <path
       d="m 26.625835,9.4573155 q 0.112421,0 0.185495,0.078695 0.07869,0.078695 0.07869,0.1911164 v 1.264741 q 0,0.151769 -0.134905,0.236085 -0.25857,0.168633 -0.567729,0.264191 -0.309159,0.08994 -0.635181,0.08994 -0.562107,0 -1.034277,-0.269811 -0.466549,-0.269812 -0.736361,-0.73074 -0.269811,-0.466549 -0.269811,-1.0230351 0,-0.5564863 0.269811,-1.0174142 0.269812,-0.4665491 0.736361,-0.7363606 0.47217,-0.2698114 1.034277,-0.2698114 0.281054,0 0.539623,0.061832 0.26419,0.061832 0.47217,0.1854954 0.06745,0.039347 0.101179,0.095558 0.03373,0.056211 0.03373,0.1236636 0,0.1124215 -0.07869,0.1967375 -0.07307,0.078695 -0.179874,0.078695 -0.08432,0 -0.146148,-0.039347 -0.36537,-0.1686322 -0.741982,-0.1686322 -0.404717,0 -0.741982,0.1967375 -0.331643,0.1967376 -0.52838,0.539623 -0.191117,0.3428854 -0.191117,0.7532238 0,0.4103383 0.191117,0.7532241 0.196737,0.337264 0.52838,0.539623 0.337265,0.196737 0.741982,0.196737 0.191116,0 0.399096,-0.04497 0.213601,-0.04497 0.36537,-0.118043 V 9.9913175 h -0.68015 q -0.112421,0 -0.191116,-0.073074 -0.07869,-0.078695 -0.07869,-0.1911165 0,-0.1180425 0.07869,-0.1911164 0.07869,-0.078695 0.191116,-0.078695 z"
       style="font-style:normal;font-variant:normal;font-weight:500;font-stretch:normal;font-size:5.62107277px;line-height:126.99999809%;font-family:Quicksand;-inkscape-font-specification:'Quicksand, Medium';font-variant-ligatures:normal;font-variant-caps:normal;font-variant-numeric:normal;font-feature-settings:normal;text-align:start;letter-spacing:0.16336243px;word-spacing:0px;writing-mode:lr-tb;text-anchor:start;fill:#ffffff;fill-opacity:1;stroke-width:0.52697557px"
       id="path834" />
    <path
       d="m 30.034312,11.008732 q 0.118043,0 0.191117,0.07869 0.0787,0.07869 0.0787,0.185495 0,0.112422 -0.0787,0.185495 -0.07307,0.06745 -0.191117,0.06745 h -1.956133 q -0.112421,0 -0.191116,-0.07869 -0.0787,-0.07869 -0.0787,-0.191116 V 7.8609309 q 0,-0.1124215 0.0787,-0.1911165 0.07869,-0.078695 0.191116,-0.078695 h 1.956133 q 0.118043,0 0.191117,0.073074 0.0787,0.073074 0.0787,0.1911165 0,0.1124215 -0.0787,0.1854954 -0.07307,0.067453 -0.191117,0.067453 h -1.669458 v 1.1466988 h 1.41651 q 0.118043,0 0.191117,0.073074 0.0787,0.073074 0.0787,0.1854954 0,0.1180425 -0.0787,0.1854954 -0.07307,0.067453 -0.191117,0.067453 h -1.41651 v 1.2422575 z"
       style="font-style:normal;font-variant:normal;font-weight:500;font-stretch:normal;font-size:5.62107277px;line-height:126.99999809%;font-family:Quicksand;-inkscape-font-specification:'Quicksand, Medium';font-variant-ligatures:normal;font-variant-caps:normal;font-variant-numeric:normal;font-feature-settings:normal;text-align:start;letter-spacing:0.16336243px;word-spacing:0px;writing-mode:lr-tb;text-anchor:start;fill:#ffffff;fill-opacity:1;stroke-width:0.52697557px"
       id="path836" />
    <path
       d="m 32.751399,7.5911194 q 0.297917,0 0.550865,0.1630111 0.252948,0.15739 0.399096,0.4328226 0.151769,0.2754326 0.151769,0.6070759 0,0.3316433 -0.151769,0.6126969 -0.146148,0.2810536 -0.399096,0.4440647 -0.252948,0.1630114 -0.550865,0.1630114 h -1.056762 v 1.242257 q 0,0.112421 -0.07307,0.191116 -0.07307,0.07869 -0.185495,0.07869 -0.118043,0 -0.191117,-0.07307 -0.06745,-0.07869 -0.06745,-0.196737 V 7.8609309 q 0,-0.1124215 0.07869,-0.1911165 0.07869,-0.078695 0.191116,-0.078695 z m 0,1.9111647 q 0.151769,0 0.281054,-0.095558 0.129284,-0.1011793 0.202358,-0.2641904 0.07869,-0.1630111 0.07869,-0.3485065 0,-0.2866748 -0.168632,-0.4834123 -0.163011,-0.2023586 -0.393475,-0.2023586 h -1.056762 v 1.394026 z"
       style="font-style:normal;font-variant:normal;font-weight:500;font-stretch:normal;font-size:5.62107277px;line-height:126.99999809%;font-family:Quicksand;-inkscape-font-specification:'Quicksand, Medium';font-variant-ligatures:normal;font-variant-caps:normal;font-variant-numeric:normal;font-feature-settings:normal;text-align:start;letter-spacing:0.16336243px;word-spacing:0px;writing-mode:lr-tb;text-anchor:start;fill:#ffffff;fill-opacity:1;stroke-width:0.52697557px"
       id="path838" />
    <path
       d="m 37.707342,11.076185 q 0.05621,0.03935 0.08994,0.101179 0.03373,0.05621 0.03373,0.118042 0,0.118043 -0.0787,0.174254 -0.07307,0.05621 -0.179875,0.05621 -0.1068,0 -0.179874,-0.04497 -0.168632,-0.09556 -0.275433,-0.309159 -0.1068,-0.213601 -0.1068,-0.62956 0,-0.281054 -0.168632,-0.41596 -0.168632,-0.1349055 -0.438444,-0.1349055 h -1.135457 v 1.2647415 q 0,0.118042 -0.06745,0.196737 -0.06745,0.07307 -0.174253,0.07307 -0.129284,0 -0.224843,-0.07869 -0.08994,-0.07869 -0.08994,-0.191116 V 7.8609309 q 0,-0.1124215 0.0787,-0.1911165 0.07869,-0.078695 0.191117,-0.078695 h 1.579521 q 0.303538,0 0.556486,0.1517689 0.252949,0.1461479 0.404718,0.4103384 0.151768,0.2585693 0.151768,0.5845915 0,0.3147801 -0.168632,0.5902127 -0.168632,0.2698115 -0.432822,0.4047172 0.207979,0.1068004 0.326022,0.2979169 0.123664,0.191116 0.134906,0.444065 0.02248,0.320401 0.05059,0.438443 0.02811,0.112422 0.123664,0.163012 z M 36.549401,9.5247684 q 0.140527,-0.011242 0.26419,-0.1124214 0.129285,-0.1011793 0.20798,-0.2698115 0.07869,-0.1742533 0.07869,-0.3878541 0,-0.2698114 -0.168632,-0.4553068 -0.163011,-0.1911165 -0.399096,-0.1911165 h -1.264742 v 1.4165103 z"
       style="font-style:normal;font-variant:normal;font-weight:500;font-stretch:normal;font-size:5.62107277px;line-height:126.99999809%;font-family:Quicksand;-inkscape-font-specification:'Quicksand, Medium';font-variant-ligatures:normal;font-variant-caps:normal;font-variant-numeric:normal;font-feature-settings:normal;text-align:start;letter-spacing:0.16336243px;word-spacing:0px;writing-mode:lr-tb;text-anchor:start;fill:#ffffff;fill-opacity:1;stroke-width:0.52697557px"
       id="path840" />
    <path
       d="m 39.251729,11.250438 q 0,0.118042 -0.08432,0.196737 -0.08432,0.07869 -0.196738,0.07869 -0.123663,0 -0.202358,-0.07869 -0.07307,-0.07869 -0.07307,-0.196737 V 7.8609309 q 0,-0.1124215 0.0787,-0.1911165 0.07869,-0.078695 0.202358,-0.078695 0.112422,0 0.191117,0.078695 0.08432,0.078695 0.08432,0.1911165 z"
       style="font-style:normal;font-variant:normal;font-weight:500;font-stretch:normal;font-size:5.62107277px;line-height:126.99999809%;font-family:Quicksand;-inkscape-font-specification:'Quicksand, Medium';font-variant-ligatures:normal;font-variant-caps:normal;font-variant-numeric:normal;font-feature-settings:normal;text-align:start;letter-spacing:0.16336243px;word-spacing:0px;writing-mode:lr-tb;text-anchor:start;fill:#ffffff;fill-opacity:1;stroke-width:0.52697557px"
       id="path842" />
    <path
       d="m 43.156618,7.8215834 q 0.134906,0.073074 0.134906,0.2248429 0,0.1011793 -0.06745,0.1854954 -0.06745,0.089937 -0.185496,0.089937 -0.0787,0 -0.151769,-0.039347 -0.348506,-0.1967375 -0.753223,-0.1967375 -0.421581,0 -0.747603,0.1854954 -0.320401,0.1854954 -0.500276,0.5227598 -0.179874,0.3316433 -0.179874,0.7644659 0,0.4665491 0.185495,0.8038131 0.185496,0.337265 0.511518,0.517139 0.326022,0.174253 0.73074,0.174253 0.415959,0 0.753223,-0.202358 0.06745,-0.03373 0.146148,-0.03373 0.123664,0 0.196738,0.09556 0.06745,0.08432 0.06745,0.179875 0,0.06745 -0.03935,0.129284 -0.03373,0.05621 -0.09556,0.08994 -0.219222,0.123663 -0.494655,0.196737 -0.269811,0.07307 -0.534001,0.07307 -0.545245,0 -1.006173,-0.241706 -0.455306,-0.241706 -0.730739,-0.702634 -0.269811,-0.460928 -0.269811,-1.0792461 0,-0.5677284 0.258569,-1.0230353 0.26419,-0.460928 0.719497,-0.7194973 0.460928,-0.2641904 1.028657,-0.2641904 0.545244,0 1.023035,0.2698115 z"
       style="font-style:normal;font-variant:normal;font-weight:500;font-stretch:normal;font-size:5.62107277px;line-height:126.99999809%;font-family:Quicksand;-inkscape-font-specification:'Quicksand, Medium';font-variant-ligatures:normal;font-variant-caps:normal;font-variant-numeric:normal;font-feature-settings:normal;text-align:start;letter-spacing:0.16336243px;word-spacing:0px;writing-mode:lr-tb;text-anchor:start;fill:#ffffff;fill-opacity:1;stroke-width:0.52697557px"
       id="path844" />
    <path
       d="m 46.331031,11.008732 q 0.118042,0 0.191116,0.07869 0.0787,0.07869 0.0787,0.185495 0,0.112422 -0.0787,0.185495 -0.07307,0.06745 -0.191116,0.06745 h -1.956133 q -0.112422,0 -0.191117,-0.07869 -0.0787,-0.07869 -0.0787,-0.191116 V 7.8609309 q 0,-0.1124215 0.0787,-0.1911165 0.07869,-0.078695 0.191117,-0.078695 h 1.956133 q 0.118042,0 0.191116,0.073074 0.0787,0.073074 0.0787,0.1911165 0,0.1124215 -0.0787,0.1854954 -0.07307,0.067453 -0.191116,0.067453 h -1.669459 v 1.1466988 h 1.416511 q 0.118042,0 0.191116,0.073074 0.07869,0.073074 0.07869,0.1854954 0,0.1180425 -0.07869,0.1854954 -0.07307,0.067453 -0.191116,0.067453 h -1.416511 v 1.2422575 z"
       style="font-style:normal;font-variant:normal;font-weight:500;font-stretch:normal;font-size:5.62107277px;line-height:126.99999809%;font-family:Quicksand;-inkscape-font-specification:'Quicksand, Medium';font-variant-ligatures:normal;font-variant-caps:normal;font-variant-numeric:normal;font-feature-settings:normal;text-align:start;letter-spacing:0.16336243px;word-spacing:0px;writing-mode:lr-tb;text-anchor:start;fill:#ffffff;fill-opacity:1;stroke-width:0.52697557px"
       id="path846" />
  </g>
</svg>
