<?xml version="1.0" encoding="UTF-8" standalone="no"?>
<svg
   width="555"
   height="64"
   viewBox="0 0 555 64"
   fill="none"
   version="1.1"
   id="svg12"
   sodipodi:docname="CP-logotype-h-black copy.svg"
   inkscape:version="1.3 (0e150ed, 2023-07-21)"
   xmlns:inkscape="http://www.inkscape.org/namespaces/inkscape"
   xmlns:sodipodi="http://sodipodi.sourceforge.net/DTD/sodipodi-0.dtd"
   xmlns="http://www.w3.org/2000/svg"
   xmlns:svg="http://www.w3.org/2000/svg">
  <sodipodi:namedview
     id="namedview12"
     pagecolor="#ffffff"
     bordercolor="#000000"
     borderopacity="0.25"
     inkscape:showpageshadow="2"
     inkscape:pageopacity="0.0"
     inkscape:pagecheckerboard="0"
     inkscape:deskcolor="#d1d1d1"
     inkscape:zoom="1.0738739"
     inkscape:cx="277.5"
     inkscape:cy="32.126678"
     inkscape:window-width="1392"
     inkscape:window-height="1212"
     inkscape:window-x="0"
     inkscape:window-y="25"
     inkscape:window-maximized="0"
     inkscape:current-layer="svg12" />
  <g
     clip-path="url(#clip0_80_674)"
     id="g12"
     style="fill:#ffffff;fill-opacity:1">
    <path
       d="M527.512 48.0741V14.6682H554.523V21.588H535.386V41.1543H555V48.0741H527.512ZM531.616 34.3777V27.7919H552.375V34.3777H531.616Z"
       fill="black"
       id="path1"
       style="fill:#ffffff;fill-opacity:1" />
    <path
       d="M502.897 48.5513C500.161 48.5513 497.632 48.1377 495.309 47.3105C492.987 46.4833 490.951 45.3062 489.201 43.779C487.451 42.2201 486.099 40.3907 485.144 38.2909C484.19 36.1593 483.713 33.805 483.713 31.2279C483.713 28.7145 484.206 26.4079 485.192 24.3081C486.21 22.2083 487.578 20.379 489.296 18.82C491.046 17.2611 493.082 16.068 495.405 15.2408C497.759 14.4136 500.288 14 502.993 14C504.87 14 506.699 14.2227 508.481 14.6681C510.262 15.1136 511.901 15.734 513.396 16.5293C514.923 17.3247 516.212 18.2314 517.262 19.2495L512.489 25.358C511.694 24.6263 510.803 23.9741 509.817 23.4014C508.863 22.7969 507.797 22.3356 506.62 22.0175C505.442 21.6675 504.122 21.4925 502.659 21.4925C501.291 21.4925 499.97 21.7152 498.698 22.1606C497.457 22.606 496.327 23.2423 495.309 24.0695C494.323 24.8967 493.528 25.9307 492.923 27.1715C492.35 28.3805 492.064 29.7645 492.064 31.3234C492.064 32.8505 492.366 34.2345 492.971 35.4753C493.575 36.6842 494.403 37.7182 495.452 38.5773C496.534 39.4044 497.759 40.0408 499.127 40.4862C500.527 40.8998 502.006 41.1066 503.565 41.1066C505.061 41.1066 506.397 40.9157 507.574 40.5339C508.751 40.1203 509.817 39.6112 510.771 39.0068C511.726 38.3705 512.569 37.766 513.301 37.1933L517.166 43.445C516.275 44.2722 515.082 45.0835 513.587 45.8788C512.124 46.6424 510.469 47.2787 508.624 47.7877C506.81 48.2968 504.902 48.5513 502.897 48.5513Z"
       fill="black"
       id="path2"
       style="fill:#ffffff;fill-opacity:1" />
    <path
       d="M464.4 48.0741V14.6682H468.456C469.347 14.6682 470.126 14.6682 470.794 14.6682C471.463 14.6682 472.035 14.6682 472.512 14.6682V48.0741H464.4Z"
       fill="black"
       id="path3"
       style="fill:#ffffff;fill-opacity:1" />
    <path
       d="M421.811 48.0741V14.6682H439.23C441.68 14.6682 443.812 15.1136 445.625 16.0044C447.439 16.8952 448.838 18.1519 449.825 19.7745C450.843 21.3653 451.352 23.2265 451.352 25.3581C451.352 27.4579 450.811 29.3668 449.729 31.0848C448.679 32.771 447.232 34.0913 445.386 35.0458C443.573 36.0003 441.537 36.4775 439.278 36.4775H429.542V48.0741H421.811ZM443.716 48.0741L433.599 32.9937L441.998 31.8007L453.07 48.0741H443.716ZM429.542 30.2735H438.419C439.342 30.2735 440.153 30.0826 440.853 29.7009C441.585 29.3191 442.157 28.7941 442.571 28.126C443.016 27.4261 443.239 26.6307 443.239 25.7399C443.239 24.849 443 24.0855 442.523 23.4492C442.078 22.8129 441.473 22.3197 440.71 21.9698C439.946 21.6198 439.055 21.4448 438.037 21.4448H429.542V30.2735Z"
       fill="black"
       id="path4"
       style="fill:#ffffff;fill-opacity:1" />
    <path
       d="M381.327 48.0741V14.6682H399.032C401.228 14.6682 403.184 15.1454 404.902 16.0999C406.652 17.0543 408.036 18.3587 409.054 20.0131C410.072 21.6675 410.581 23.5287 410.581 25.5967C410.581 27.8238 410.04 29.8122 408.959 31.562C407.909 33.2801 406.477 34.6481 404.664 35.6662C402.85 36.6843 400.798 37.1933 398.507 37.1933H389.44V48.0741H381.327ZM389.297 30.0826H397.171C398.094 30.0826 398.921 29.8917 399.653 29.51C400.416 29.1282 401.021 28.6191 401.466 27.9828C401.912 27.3147 402.134 26.5671 402.134 25.7399C402.134 24.9127 401.912 24.2127 401.466 23.6401C401.021 23.0674 400.416 22.622 399.653 22.3038C398.921 21.9857 398.094 21.8266 397.171 21.8266H389.297V30.0826Z"
       fill="black"
       id="path5"
       style="fill:#ffffff;fill-opacity:1" />
    <path
       d="M341.915 48.0741V14.6682H368.926V21.588H349.789V41.1543H369.403V48.0741H341.915ZM346.019 34.3777V27.7919H366.779V34.3777H346.019Z"
       fill="black"
       id="path6"
       style="fill:#ffffff;fill-opacity:1" />
    <path
       d="M312.59 48.5513C309.822 48.5513 307.261 48.1695 304.907 47.406C302.584 46.6106 300.58 45.4811 298.894 44.0176C297.207 42.5223 295.887 40.693 294.933 38.5295C294.01 36.3661 293.549 33.9322 293.549 31.2279C293.549 28.7464 294.042 26.4716 295.028 24.4036C296.014 22.3038 297.398 20.4744 299.18 18.9155C300.962 17.3565 303.061 16.1476 305.479 15.2885C307.929 14.4295 310.586 14 313.449 14C315.708 14 317.776 14.2546 319.653 14.7636C321.562 15.2726 323.248 15.9408 324.712 16.768C326.207 17.5951 327.432 18.5178 328.386 19.5359L323.471 24.8808C322.58 24.1491 321.625 23.5128 320.607 22.9719C319.589 22.4311 318.476 22.0015 317.267 21.6834C316.09 21.3334 314.801 21.1584 313.401 21.1584C311.779 21.1584 310.267 21.413 308.868 21.922C307.5 22.4311 306.291 23.1469 305.241 24.0695C304.223 24.9604 303.427 26.0262 302.855 27.267C302.314 28.4759 302.043 29.7963 302.043 31.2279C302.043 32.9142 302.345 34.3936 302.95 35.6662C303.554 36.9388 304.382 38.0046 305.432 38.8636C306.481 39.6908 307.69 40.3271 309.058 40.7725C310.427 41.1861 311.89 41.3929 313.449 41.3929C314.817 41.3929 316.09 41.2338 317.267 40.9157C318.476 40.5975 319.51 40.168 320.369 39.6272C321.228 39.0545 321.896 38.3864 322.373 37.6228C322.882 36.8592 323.137 36.0161 323.137 35.0935V34.0436L324.234 35.8571H312.733V29.6054H330.82C330.884 30.019 330.931 30.5121 330.963 31.0848C330.995 31.6575 331.011 32.1983 331.011 32.7074C331.043 33.1846 331.059 33.5186 331.059 33.7095C331.059 36.032 330.613 38.1159 329.722 39.9612C328.832 41.8065 327.559 43.3654 325.905 44.638C324.282 45.8788 322.341 46.8492 320.082 47.5491C317.824 48.2172 315.326 48.5513 312.59 48.5513Z"
       fill="black"
       id="path7"
       style="fill:#ffffff;fill-opacity:1" />
    <path
       d="M253.956 48.0741V14.6682H271.375C273.824 14.6682 275.956 15.1136 277.769 16.0044C279.583 16.8952 280.983 18.1519 281.969 19.7745C282.987 21.3653 283.496 23.2265 283.496 25.3581C283.496 27.4579 282.955 29.3668 281.874 31.0848C280.824 32.771 279.376 34.0913 277.531 35.0458C275.717 36.0003 273.681 36.4775 271.422 36.4775H261.687V48.0741H253.956ZM275.861 48.0741L265.743 32.9937L274.143 31.8007L285.214 48.0741H275.861ZM261.687 30.2735H270.563C271.486 30.2735 272.297 30.0826 272.997 29.7009C273.729 29.3191 274.302 28.7941 274.715 28.126C275.161 27.4261 275.383 26.6307 275.383 25.7399C275.383 24.849 275.145 24.0855 274.667 23.4492C274.222 22.8129 273.618 22.3197 272.854 21.9698C272.09 21.6198 271.2 21.4448 270.182 21.4448H261.687V30.2735Z"
       fill="black"
       id="path8"
       style="fill:#ffffff;fill-opacity:1" />
    <path
       d="M207.956 48.0741L223.036 14.6682H230.338L245.371 48.0741H237.067L228.763 29.51C228.445 28.8418 228.143 28.1737 227.856 27.5056C227.602 26.8057 227.347 26.1216 227.093 25.4535C226.838 24.7536 226.6 24.0696 226.377 23.4014C226.154 22.7015 225.947 22.0334 225.757 21.3971L227.427 21.3494C227.204 22.0811 226.981 22.7811 226.759 23.4492C226.536 24.1173 226.281 24.8013 225.995 25.5012C225.741 26.1694 225.47 26.8375 225.184 27.5056C224.898 28.1737 224.611 28.8578 224.325 29.5577L216.069 48.0741H207.956ZM215.019 41.9656L217.596 35.8571H235.587L237.305 41.9656H215.019Z"
       fill="black"
       id="path9"
       style="fill:#ffffff;fill-opacity:1" />
    <path
       d="M191.316 48.0741V14.6682H199.429V48.0741H191.316ZM166.882 48.0741V14.6682H174.995V48.0741H166.882ZM170.032 35.1412L170.128 27.8874H195.611V35.1412H170.032Z"
       fill="black"
       id="path10"
       style="fill:#ffffff;fill-opacity:1" />
    <path
       d="M142.268 48.5513C139.532 48.5513 137.003 48.1377 134.68 47.3105C132.357 46.4833 130.321 45.3062 128.571 43.779C126.822 42.2201 125.47 40.3907 124.515 38.2909C123.561 36.1593 123.083 33.805 123.083 31.2279C123.083 28.7145 123.577 26.4079 124.563 24.3081C125.581 22.2083 126.949 20.379 128.667 18.82C130.417 17.2611 132.453 16.068 134.775 15.2408C137.13 14.4136 139.659 14 142.363 14C144.24 14 146.07 14.2227 147.851 14.6681C149.633 15.1136 151.272 15.734 152.767 16.5293C154.294 17.3247 155.583 18.2314 156.632 19.2495L151.86 25.358C151.065 24.6263 150.174 23.9741 149.188 23.4014C148.233 22.7969 147.167 22.3356 145.99 22.0175C144.813 21.6675 143.493 21.4925 142.029 21.4925C140.661 21.4925 139.341 21.7152 138.068 22.1606C136.828 22.606 135.698 23.2423 134.68 24.0695C133.694 24.8967 132.898 25.9307 132.294 27.1715C131.721 28.3805 131.435 29.7645 131.435 31.3234C131.435 32.8505 131.737 34.2345 132.342 35.4753C132.946 36.6842 133.773 37.7182 134.823 38.5773C135.905 39.4044 137.13 40.0408 138.498 40.4862C139.898 40.8998 141.377 41.1066 142.936 41.1066C144.431 41.1066 145.768 40.9157 146.945 40.5339C148.122 40.1203 149.188 39.6112 150.142 39.0068C151.097 38.3705 151.94 37.766 152.671 37.1933L156.537 43.445C155.646 44.2722 154.453 45.0835 152.958 45.8788C151.494 46.6424 149.84 47.2787 147.995 47.7877C146.181 48.2968 144.272 48.5513 142.268 48.5513Z"
       fill="black"
       id="path11"
       style="fill:#ffffff;fill-opacity:1" />
    <path
       fill-rule="evenodd"
       clip-rule="evenodd"
       d="M0.271039 29.5679L56.8288 0.551315C58.2622 -0.184072 59.9621 -0.183755 61.3952 0.552165L96.6522 18.6571C97.0103 18.841 97.0153 19.3512 96.6608 19.5421L91.636 22.2478C91.273 22.4433 91.2892 22.9693 91.6635 23.142L96.5889 25.4153C96.9632 25.588 96.9793 26.1141 96.6164 26.3095L91.636 28.9913C91.273 29.1867 91.2892 29.7127 91.6635 29.8855L96.578 32.1537C96.9543 32.3274 96.9681 32.8571 96.6013 33.0501L40.6483 62.4991C39.2148 63.2536 37.5047 63.2668 36.0597 62.5347L0.278058 44.4054C-0.0753046 44.2263 -0.0900675 43.727 0.252103 43.5274L4.88505 40.8249C5.22825 40.6247 5.2121 40.1235 4.85672 39.9458L0.285482 37.6602C-0.069903 37.4825 -0.0860545 36.9813 0.257154 36.7811L4.94307 34.0476C5.27382 33.8547 5.27382 33.3768 4.94307 33.1838L0.247342 30.4447C-0.0938364 30.2456 -0.0803934 29.7482 0.271039 29.5679ZM38.7708 20.4988L44.9605 24.041C45.3983 24.2916 45.5033 24.8914 45.1779 25.283L38.948 32.7831C38.3812 33.4653 39.1456 34.451 39.9189 34.0351L57.2152 24.7352C57.7885 24.4269 57.781 23.5807 57.2023 23.2832L51.255 20.2266C50.7958 19.9906 50.6723 19.3752 51.0031 18.9717L57.882 10.5824C58.4424 9.89882 57.6789 8.92015 56.9081 9.33406L38.7893 19.0636C38.2298 19.364 38.2192 20.1832 38.7708 20.4988Z"
       fill="black"
       id="path12"
       style="fill:#ffffff;fill-opacity:1" />
  </g>
  <defs
     id="defs12">
    <clipPath
       id="clip0_80_674">
      <rect
         width="555"
         height="64"
         fill="white"
         id="rect12" />
    </clipPath>
  </defs>
</svg>
