<?xml version="1.0" encoding="UTF-8" standalone="no"?>
<!-- Created with Inkscape (http://www.inkscape.org/) -->

<svg
   xmlns:dc="http://purl.org/dc/elements/1.1/"
   xmlns:cc="http://creativecommons.org/ns#"
   xmlns:rdf="http://www.w3.org/1999/02/22-rdf-syntax-ns#"
   xmlns:svg="http://www.w3.org/2000/svg"
   xmlns="http://www.w3.org/2000/svg"
   xmlns:sodipodi="http://sodipodi.sourceforge.net/DTD/sodipodi-0.dtd"
   xmlns:inkscape="http://www.inkscape.org/namespaces/inkscape"
   width="86.119766mm"
   height="86.119774mm"
   viewBox="0 0 305.14877 305.14885"
   id="svg4985"
   version="1.1"
   inkscape:version="0.91 r13725"
   sodipodi:docname="safari-pinned-tab.svg"
   inkscape:export-filename="/home/nih/Desktop/cp/logos/android-384.png"
   inkscape:export-xdpi="113.26"
   inkscape:export-ydpi="113.26">
  <defs
     id="defs4987" />
  <sodipodi:namedview
     id="base"
     pagecolor="#ffffff"
     bordercolor="#666666"
     borderopacity="1.0"
     inkscape:pageopacity="0.0"
     inkscape:pageshadow="2"
     inkscape:zoom="2"
     inkscape:cx="22.385349"
     inkscape:cy="201.37163"
     inkscape:document-units="px"
     inkscape:current-layer="layer1"
     showgrid="false"
     fit-margin-top="0"
     fit-margin-left="0"
     fit-margin-right="0"
     fit-margin-bottom="0"
     inkscape:window-width="1859"
     inkscape:window-height="1056"
     inkscape:window-x="1981"
     inkscape:window-y="24"
     inkscape:window-maximized="1" />
  <metadata
     id="metadata4990">
    <rdf:RDF>
      <cc:Work
         rdf:about="">
        <dc:format>image/svg+xml</dc:format>
        <dc:type
           rdf:resource="http://purl.org/dc/dcmitype/StillImage" />
        <dc:title></dc:title>
      </cc:Work>
    </rdf:RDF>
  </metadata>
  <g
     inkscape:groupmode="layer"
     id="layer4"
     inkscape:label="Layer 2"
     transform="translate(-193.1564,-413.51456)" />
  <g
     inkscape:label="Layer 1"
     inkscape:groupmode="layer"
     id="layer1"
     transform="translate(-193.1564,-413.51456)">
    <path
       inkscape:connector-curvature="0"
       style="fill:#000000;fill-opacity:1"
       d="m 467.91504,565.96351 -11.49602,-6.03301 10.02002,-5.23601 c 3.41201,-1.785 3.41501,-4.70701 0.01,-6.49601 l -10.76202,-5.64801 10.75602,-5.62101 c 3.41201,-1.78501 3.41501,-4.70701 0.01,-6.49602 L 380.3709,485.25335 c -3.40901,-1.789 -8.99702,-1.809 -12.41802,-0.041 L 223.53563,559.8065 c -3.422,1.766 -3.418,4.65001 0.01,6.41001 l 11.01802,5.66202 -11.02302,5.69301 c -3.422,1.766 -3.418,4.65001 0.01,6.41001 l 11.75602,6.04101 -10.28901,5.31401 c -3.42201,1.76801 -3.41801,4.65201 0.01,6.41201 l 88.01014,45.22309 c 3.42601,1.76001 9.02002,1.74001 12.43002,-0.043 l 142.46424,-74.46914 c 3.40901,-1.78301 3.41201,-4.70701 0,-6.49602 z m -93.03415,-58.62311 -21.59604,24.90005 c -1.08,1.246 -0.764,2.883 0.703,3.637 l 17.18203,8.82802 c 1.467,0.754 1.469,1.99201 0,2.74801 l -53.92109,27.85005 c -1.467,0.758 -1.781,0.357 -0.699,-0.889 l 21.59404,-24.90005 c 1.082,-1.246 0.766,-2.885 -0.70101,-3.63901 l -17.18202,-8.82801 c -1.46701,-0.75401 -1.46901,-1.99001 0,-2.74801 l 53.92209,-27.85005 c 1.465,-0.75601 1.78,-0.35501 0.699,0.891 z"
       id="path11" />
  </g>
</svg>
