<?xml version="1.0" standalone="no"?>
<!DOCTYPE svg PUBLIC "-//W3C//DTD SVG 20010904//EN"
 "http://www.w3.org/TR/2001/REC-SVG-20010904/DTD/svg10.dtd">
<svg version="1.0" xmlns="http://www.w3.org/2000/svg"
 width="500.000000pt" height="500.000000pt" viewBox="0 0 500.000000 500.000000"
 preserveAspectRatio="xMidYMid meet">
<metadata>
Created by potrace 1.11, written by Peter Selinger 2001-2013
</metadata>
<g transform="translate(0.000000,500.000000) scale(0.100000,-0.100000)"
fill="#000000" stroke="none">
<path d="M2320 3989 c-430 -62 -798 -417 -876 -845 -17 -95 -19 -247 -4 -353
38 -269 227 -573 447 -719 l53 -35 -19 -26 c-10 -14 -121 -174 -246 -356 -126
-181 -248 -358 -272 -392 -23 -35 -43 -64 -43 -66 0 -2 327 -4 728 -4 l727 1
5 -96 5 -96 423 212 422 211 -425 213 -425 212 0 -108 0 -109 -310 1 c-170 0
-310 2 -310 4 0 5 173 253 180 257 3 2 57 5 120 6 288 7 512 103 717 307 164
163 268 363 299 577 22 149 7 350 -37 485 -22 68 -88 206 -120 252 -11 14 -19
29 -19 32 0 3 43 6 95 6 l95 0 0 220 0 220 -577 -1 c-318 -1 -603 -5 -633 -10z
m298 -444 c222 -48 411 -241 458 -466 28 -134 11 -278 -48 -398 -75 -154 -229
-281 -393 -325 -63 -17 -198 -23 -260 -11 -251 46 -448 236 -498 481 -31 153
0 319 85 456 54 88 195 204 288 238 110 39 256 49 368 25z"/>
</g>
</svg>
