<?xml version="1.0" encoding="UTF-8" standalone="no"?>
<svg
   width="882.23242"
   height="737.35913"
   viewBox="-4 0 39.700458 33.181161"
   version="1.1"
   id="svg1"
   sodipodi:docname="pin.svg"
   inkscape:version="1.3 (0e150ed, 2023-07-21)"
   xmlns:inkscape="http://www.inkscape.org/namespaces/inkscape"
   xmlns:sodipodi="http://sodipodi.sourceforge.net/DTD/sodipodi-0.dtd"
   xmlns="http://www.w3.org/2000/svg"
   xmlns:svg="http://www.w3.org/2000/svg"
   xmlns:rdf="http://www.w3.org/1999/02/22-rdf-syntax-ns#"
   xmlns:cc="http://creativecommons.org/ns#"
   xmlns:dc="http://purl.org/dc/elements/1.1/">
  <sodipodi:namedview
     id="namedview1"
     pagecolor="#ffffff"
     bordercolor="#000000"
     borderopacity="0.25"
     inkscape:showpageshadow="2"
     inkscape:pageopacity="0.0"
     inkscape:pagecheckerboard="true"
     inkscape:deskcolor="#d1d1d1"
     inkscape:zoom="0.52"
     inkscape:cx="368.26923"
     inkscape:cy="217.30769"
     inkscape:window-width="1392"
     inkscape:window-height="1027"
     inkscape:window-x="0"
     inkscape:window-y="25"
     inkscape:window-maximized="0"
     inkscape:current-layer="svg1" />
  <!-- Uploaded to: SVG Repo, www.svgrepo.com, Generator: SVG Repo Mixer Tools -->
  <title
     id="title1">map-marker</title>
  <desc
     id="desc1">Created with Sketch.</desc>
  <defs
     id="defs1" />
  <g
     id="Vivid.JS"
     stroke="none"
     stroke-width="1"
     fill="none"
     fill-rule="evenodd"
     style="fill:#9a3032;fill-opacity:1;stroke:#691e1f;stroke-width:1.27309;stroke-dasharray:none;stroke-opacity:1"
     transform="matrix(1.3143831,0,0,0.85552046,-2.488336,1.6254713)">
    <g
       id="Vivid-Icons"
       transform="translate(-125,-643)"
       style="fill:#9a3032;fill-opacity:1;stroke:#691e1f;stroke-width:1.27309;stroke-dasharray:none;stroke-opacity:1">
      <g
         id="Icons"
         transform="translate(37,169)"
         style="fill:#9a3032;fill-opacity:1;stroke:#691e1f;stroke-width:1.27309;stroke-dasharray:none;stroke-opacity:1">
        <g
           id="map-marker"
           transform="translate(78,468)"
           style="fill:#9a3032;fill-opacity:1;stroke:#691e1f;stroke-width:1.27309;stroke-dasharray:none;stroke-opacity:1">
          <g
             transform="translate(10,6)"
             id="g1"
             style="fill:#9a3032;fill-opacity:1;stroke:#691e1f;stroke-width:1.27309;stroke-dasharray:none;stroke-opacity:1" />
        </g>
      </g>
    </g>
  </g>
  <metadata
     id="metadata1">
    <rdf:RDF>
      <cc:Work
         rdf:about="">
        <dc:title>map-marker</dc:title>
      </cc:Work>
    </rdf:RDF>
  </metadata>
  <path
     id="rect1"
     style="fill:#79befa;fill-opacity:1;stroke:#000000;stroke-width:1.35;stroke-dasharray:none;stroke-opacity:1;paint-order:fill markers stroke"
     d="M 2.0749999,0.67500001 C -0.91659718,0.67500001 -3.325,3.0834028 -3.325,6.0749999 V 20.111484 c 0,2.991597 2.40840282,5.4 5.3999999,5.4 h 3.5298633 c 4.9384198,4.188606 10.3081638,6.912685 10.3081638,6.912685 0,0 5.365543,-2.725504 10.302363,-6.912685 h 3.410069 c 2.991597,0 5.399999,-2.408403 5.399999,-5.4 V 6.0749999 c 0,-2.9915971 -2.408402,-5.39999989 -5.399999,-5.39999989 z" />
  <path
     d="m 11.179298,15.317053 h 4.838641 l -2.552069,6.936814 c -0.334008,0.882065 0.582331,1.353096 1.164699,0.633705 l 7.776056,-9.728618 c 0.14561,-0.179849 0.222672,-0.351145 0.222672,-0.548095 0,-0.325457 -0.248359,-0.582367 -0.608017,-0.582367 H 17.174051 L 19.734706,5.091678 C 20.060091,4.209613 19.152339,3.7385818 18.569972,4.4665226 l -7.776056,9.7201054 c -0.145611,0.188397 -0.231223,0.359658 -0.231223,0.548094 0,0.33397 0.25691,0.582331 0.616605,0.582331 z"
     id="path1-9"
     style="fill:#000000;fill-opacity:1;stroke-width:0.642856" />
</svg>
