<?xml version="1.0" encoding="UTF-8" standalone="no"?>
<!-- Generator: Adobe Illustrator 28.3.0, SVG Export Plug-In . SVG Version: 6.00 Build 0)  -->

<svg
   version="1.1"
   x="0px"
   y="0px"
   viewBox="0 0 412.04989 83.339999"
   xml:space="preserve"
   id="svg11"
   sodipodi:docname="omv_emotion.svg"
   width="412.0499"
   height="83.339996"
   inkscape:version="1.3 (0e150ed, 2023-07-21)"
   xmlns:inkscape="http://www.inkscape.org/namespaces/inkscape"
   xmlns:sodipodi="http://sodipodi.sourceforge.net/DTD/sodipodi-0.dtd"
   xmlns="http://www.w3.org/2000/svg"
   xmlns:svg="http://www.w3.org/2000/svg"><defs
   id="defs11" /><sodipodi:namedview
   id="namedview11"
   pagecolor="#ffffff"
   bordercolor="#000000"
   borderopacity="0.25"
   inkscape:showpageshadow="2"
   inkscape:pageopacity="0.0"
   inkscape:pagecheckerboard="true"
   inkscape:deskcolor="#d1d1d1"
   inkscape:zoom="0.82318336"
   inkscape:cx="203.47836"
   inkscape:cy="40.695672"
   inkscape:window-width="1392"
   inkscape:window-height="942"
   inkscape:window-x="2203"
   inkscape:window-y="25"
   inkscape:window-maximized="0"
   inkscape:current-layer="svg11" />&#10;<style
   type="text/css"
   id="style1">&#10;	.st0{fill:none;}&#10;	.st1{fill:#98762D;}&#10;	.st2{fill:url(#SVGID_1_);}&#10;	.st3{fill:#FFFFFF;}&#10;	.st4{display:none;}&#10;	.st5{display:inline;}&#10;</style>&#10;&#10;<g
   id="eMotion"
   transform="translate(-49.69,-36.18)">&#10;	<g
   id="g7">&#10;		<g
   id="g5">&#10;			<polygon
   class="st1"
   points="208.64,111.77 223.97,111.77 233.44,67.09 234.56,111.77 249.22,111.77 269.83,67.1 260.36,111.77 275.7,111.77 290.07,43.94 266.85,43.94 247.66,86.01 246.88,43.94 223.02,43.94 "
   id="polygon1" />&#10;			<polygon
   class="st1"
   points="381.41,43.94 366.63,43.94 364.14,55.94 378.92,55.94 "
   id="polygon2" />&#10;			<path
   class="st1"
   d="m 310.56,62.85 c -18.08,0 -22.1,11.92 -24.66,24.13 -2.01,9.34 -2.6,16.5 1.05,21.02 2.54,3.15 6.95,4.68 13.47,4.68 18,0 22.07,-11.97 24.94,-25.32 1.83,-8.7 2.31,-15.39 -1.26,-19.79 -2.58,-3.17 -7.01,-4.72 -13.54,-4.72 z m 0.28,23.4 c -3.02,14.1 -4.73,16.35 -8.68,16.35 -1.67,0 -2.23,-0.43 -2.54,-0.8 -1.37,-1.7 -0.53,-7.29 1.16,-15.17 2,-9.53 3.36,-13.7 8.05,-13.7 1.3,0 2.18,0.3 2.68,0.92 1.42,1.76 0.54,6.66 -0.67,12.4 z"
   id="path2" />&#10;			<polygon
   class="st1"
   points="362.43,63.77 352.26,111.77 367.04,111.77 377.21,63.77 "
   id="polygon3" />&#10;			<path
   class="st1"
   d="m 346.3,102.14 c -1.17,0 -1.95,-0.2 -2.26,-0.57 -0.49,-0.61 -0.17,-2.14 0.21,-3.91 l 5.17,-24.1 h 6.68 l 2.03,-9.8 h -6.66 l 2.96,-13.66 -16.25,6.6 -1.5,7.06 h -5.21 l -2.03,9.8 h 5.2 l -5.79,27.29 c -0.24,1.07 -0.85,4.8 1.51,7.75 1.91,2.4 5.21,3.61 9.81,3.61 2.7,0 4.5,-0.2 6.08,-0.38 l 1.45,-0.16 2.09,-10.12 -1.48,0.42 c -0.5,0.17 -1.27,0.17 -2.01,0.17 z"
   id="path3" />&#10;			<path
   class="st1"
   d="m 459.97,66.45 c -1.85,-2.29 -5.06,-3.6 -8.81,-3.6 -2.61,0 -4.82,0.43 -6.96,1.36 -1.34,0.6 -2.59,1.41 -3.75,2.42 l 0.62,-2.86 h -14.78 l -10.17,48 h 14.78 l 6.92,-32.53 c 0.9,-4.06 2.14,-6.58 5.49,-6.58 1.12,0 1.87,0.26 2.29,0.79 0.9,1.13 0.48,3.62 0.09,5.4 l -7,32.92 h 14.78 l 8.01,-37.74 c 0.63,-2.95 0.11,-5.57 -1.51,-7.58 z"
   id="path4" />&#10;			<path
   class="st1"
   d="m 415.53,67.57 c -2.58,-3.18 -7.01,-4.72 -13.54,-4.72 -18.08,0 -22.1,11.92 -24.66,24.13 -2.01,9.34 -2.6,16.5 1.05,21.02 2.54,3.15 6.95,4.68 13.47,4.68 18.01,0 22.07,-11.97 24.94,-25.32 1.83,-8.69 2.31,-15.39 -1.26,-19.79 z m -13.26,18.68 c -3.02,14.1 -4.74,16.35 -8.69,16.35 -1.67,0 -2.23,-0.43 -2.53,-0.8 -1.37,-1.7 -0.53,-7.29 1.16,-15.17 2,-9.53 3.36,-13.7 8.05,-13.7 1.3,0 2.17,0.3 2.68,0.92 1.42,1.76 0.54,6.66 -0.67,12.4 z"
   id="path5" />&#10;		</g>&#10;		<linearGradient
   id="SVGID_1_"
   gradientUnits="userSpaceOnUse"
   x1="209.7887"
   y1="78.308998"
   x2="460.8067"
   y2="78.308998">&#10;			<stop
   offset="0"
   style="stop-color:#D8A540"
   id="stop5" />&#10;			<stop
   offset="0.45"
   style="stop-color:#EEC579"
   id="stop6" />&#10;			<stop
   offset="0.9"
   style="stop-color:#D8A540"
   id="stop7" />&#10;		</linearGradient>&#10;		<path
   class="st2"
   d="m 209.79,110.84 13.98,-65.97 h 22.21 l 0.82,44.87 h 0.18 l 20.47,-44.87 h 21.47 l -13.98,65.97 h -13.43 l 10.79,-50.9 h -0.19 l -23.49,50.9 h -13.16 l -1.28,-50.9 H 234 l -10.78,50.9 z m 90.08,-24.4 c -3.01,14.07 -2.46,17.09 2.29,17.09 4.75,0 6.58,-3.01 9.59,-17.09 2.01,-9.6 2.56,-14.44 -2.92,-14.44 -5.49,0.01 -6.95,4.85 -8.96,14.44 m -13.06,0.73 c 2.65,-12.61 6.76,-23.39 23.76,-23.39 17,0 16.54,10.78 13.89,23.39 -3.1,14.44 -7.4,24.58 -24.03,24.58 -16.64,0 -16.73,-10.14 -13.62,-24.58 m 52.17,-29.78 -1.56,7.31 h -5.21 l -1.65,7.95 h 5.21 l -6.03,28.42 c -0.64,2.83 -0.73,10.23 10.41,10.23 3.11,0 5.03,-0.27 6.76,-0.46 l 1.64,-7.95 c -0.64,0.18 -1.46,0.18 -2.28,0.18 -4.21,0 -3.66,-2.29 -2.93,-5.76 l 5.3,-24.67 h 6.67 l 1.64,-7.95 h -6.67 l 2.83,-13.07 z m 28.4,-12.52 -2.1,10.14 h 12.88 l 2.11,-10.14 z m 8.68,19.83 h -12.88 l -9.78,46.14 h 12.89 z m 15.24,21.74 c -3.02,14.07 -2.47,17.09 2.29,17.09 4.75,0 6.58,-3.01 9.59,-17.09 2.01,-9.6 2.56,-14.44 -2.92,-14.44 -5.49,0.01 -6.95,4.85 -8.96,14.44 m -13.07,0.73 c 2.65,-12.61 6.76,-23.39 23.76,-23.39 17,0 16.54,10.78 13.89,23.39 -3.11,14.44 -7.4,24.58 -24.03,24.58 -16.63,0 -16.72,-10.14 -13.62,-24.58 m 66.34,-22.11 c -1.83,0.82 -3.75,2.19 -5.48,4.3 h -0.19 l 1.01,-4.66 h -12.89 l -9.77,46.14 h 12.88 l 6.76,-31.8 c 0.91,-4.11 2.28,-7.31 6.4,-7.31 4.11,0 4.2,3.2 3.28,7.31 l -6.76,31.8 h 12.88 l 7.86,-37.01 c 1.37,-6.39 -3.29,-10.05 -9.41,-10.05 -2.36,0 -4.46,0.37 -6.57,1.28"
   id="path7"
   style="fill:url(#SVGID_1_)" />&#10;	</g>&#10;	<g
   id="g8">&#10;		<path
   class="st3"
   d="m 177.89,89.79 c -1.19,5.5 -2.75,13.75 2.93,13.75 4.58,0 6.42,-4.4 7.24,-8.25 h 13.11 c -1.28,5.04 -3.76,9.17 -7.52,12.01 -3.57,2.84 -8.52,4.49 -14.57,4.49 -16.68,0 -16.77,-10.17 -13.66,-24.66 2.66,-12.65 6.78,-23.46 23.83,-23.46 17.41,0 16.96,11.27 13.38,26.12 z m 13.38,-7.24 c 0.92,-4.49 2.47,-10.91 -3.67,-10.91 -5.96,0 -7.33,6.97 -8.16,10.91 z"
   id="path8" />&#10;	</g>&#10;	<path
   class="st3"
   d="m 49.69,36.18 v 83.34 h 83.34 V 36.21 Z m 75.54,75.54 H 63.07 l 19.8,-19.91 c 7.59,5.06 17.97,4.25 24.66,-2.45 l 7.92,-7.91 -5.2,-5.2 7.82,-7.81 -5.44,-5.45 -7.82,7.82 -6.37,-6.37 7.81,-7.82 -5.44,-5.44 -7.82,7.81 -5.2,-5.2 -7.92,7.91 c -6.69,6.7 -7.5,17.07 -2.45,24.67 L 57.48,106.42 V 43.97 l 67.75,0.02 z"
   id="path9" />&#10;</g>&#10;<g
   id="Guidelines"
   class="st4"
   transform="translate(-49.69,-36.18)">&#10;	<g
   class="st5"
   id="g9">&#10;	</g>&#10;	<g
   class="st5"
   id="g10">&#10;	</g>&#10;	<g
   class="st5"
   id="g11">&#10;	</g>&#10;</g>&#10;<g
   id="Ebene_1"
   class="st4"
   transform="translate(-49.69,-36.18)">&#10;</g>&#10;</svg>
