<?xml version="1.0" encoding="UTF-8" standalone="no"?>
<!-- Generator: Adobe Illustrator 28.3.0, SVG Export Plug-In . SVG Version: 6.00 Build 0)  -->

<svg
   version="1.1"
   x="0px"
   y="0px"
   viewBox="-14 -20 326.52465 259.275"
   xml:space="preserve"
   id="svg11"
   sodipodi:docname="pin4.svg"
   width="297.89337"
   height="236.5405"
   inkscape:version="1.3 (0e150ed, 2023-07-21)"
   xmlns:inkscape="http://www.inkscape.org/namespaces/inkscape"
   xmlns:sodipodi="http://sodipodi.sourceforge.net/DTD/sodipodi-0.dtd"
   xmlns="http://www.w3.org/2000/svg"
   xmlns:svg="http://www.w3.org/2000/svg"><defs
   id="defs11" /><sodipodi:namedview
   id="namedview11"
   pagecolor="#ffffff"
   bordercolor="#000000"
   borderopacity="0.25"
   inkscape:showpageshadow="2"
   inkscape:pageopacity="0.0"
   inkscape:pagecheckerboard="true"
   inkscape:deskcolor="#d1d1d1"
   inkscape:zoom="1.6463667"
   inkscape:cx="113.88714"
   inkscape:cy="34.317992"
   inkscape:window-width="1920"
   inkscape:window-height="942"
   inkscape:window-x="1920"
   inkscape:window-y="25"
   inkscape:window-maximized="1"
   inkscape:current-layer="eMotion" />&#10;<style
   type="text/css"
   id="style1">&#10;	.st0{fill:none;}&#10;	.st1{fill:#98762D;}&#10;	.st2{fill:url(#SVGID_1_);}&#10;	.st3{fill:#FFFFFF;}&#10;	.st4{display:none;}&#10;	.st5{display:inline;}&#10;</style>&#10;&#10;<g
   id="eMotion"
   transform="translate(-163.84651,-43.94)">&#10;	<g
   id="g7">&#10;		&#10;		<linearGradient
   id="SVGID_1_"
   gradientUnits="userSpaceOnUse"
   x1="209.7887"
   y1="78.308998"
   x2="460.8067"
   y2="78.308998">&#10;			<stop
   offset="0"
   style="stop-color:#fdfdfd;stop-opacity:1;"
   id="stop5" />&#10;			<stop
   offset="0.45"
   style="stop-color:#EEC579"
   id="stop6" />&#10;			<stop
   offset="0.9"
   style="stop-color:#D8A540"
   id="stop7" />&#10;		</linearGradient>&#10;		<path
   class="st2"
   d="m 209.79,110.84 13.98,-65.97 h 22.21 l 0.82,44.87 h 0.18 l 20.47,-44.87 h 21.47 l -13.98,65.97 h -13.43 l 10.79,-50.9 h -0.19 l -23.49,50.9 h -13.16 l -1.28,-50.9 H 234 l -10.78,50.9 z m 90.08,-24.4 c -3.01,14.07 -2.46,17.09 2.29,17.09 4.75,0 6.58,-3.01 9.59,-17.09 2.01,-9.6 2.56,-14.44 -2.92,-14.44 -5.49,0.01 -6.95,4.85 -8.96,14.44 m -13.06,0.73 c 2.65,-12.61 6.76,-23.39 23.76,-23.39 17,0 16.54,10.78 13.89,23.39 -3.1,14.44 -7.4,24.58 -24.03,24.58 -16.64,0 -16.73,-10.14 -13.62,-24.58 m 52.17,-29.78 -1.56,7.31 h -5.21 l -1.65,7.95 h 5.21 l -6.03,28.42 c -0.64,2.83 -0.73,10.23 10.41,10.23 3.11,0 5.03,-0.27 6.76,-0.46 l 1.64,-7.95 c -0.64,0.18 -1.46,0.18 -2.28,0.18 -4.21,0 -3.66,-2.29 -2.93,-5.76 l 5.3,-24.67 h 6.67 l 1.64,-7.95 h -6.67 l 2.83,-13.07 z m 28.4,-12.52 -2.1,10.14 h 12.88 l 2.11,-10.14 z m 8.68,19.83 h -12.88 l -9.78,46.14 h 12.89 z m 15.24,21.74 c -3.02,14.07 -2.47,17.09 2.29,17.09 4.75,0 6.58,-3.01 9.59,-17.09 2.01,-9.6 2.56,-14.44 -2.92,-14.44 -5.49,0.01 -6.95,4.85 -8.96,14.44 m -13.07,0.73 c 2.65,-12.61 6.76,-23.39 23.76,-23.39 17,0 16.54,10.78 13.89,23.39 -3.11,14.44 -7.4,24.58 -24.03,24.58 -16.63,0 -16.72,-10.14 -13.62,-24.58 m 66.34,-22.11 c -1.83,0.82 -3.75,2.19 -5.48,4.3 h -0.19 l 1.01,-4.66 h -12.89 l -9.77,46.14 h 12.88 l 6.76,-31.8 c 0.91,-4.11 2.28,-7.31 6.4,-7.31 4.11,0 4.2,3.2 3.28,7.31 l -6.76,31.8 h 12.88 l 7.86,-37.01 c 1.37,-6.39 -3.29,-10.05 -9.41,-10.05 -2.36,0 -4.46,0.37 -6.57,1.28"
   id="path7"
   style="fill:#ffffff;fill-opacity:1;stroke:none;stroke-width:0;stroke-dasharray:none" />&#10;	</g>&#10;	<g
   id="g8">&#10;		<path
   class="st3"
   d="m 177.89,89.79 c -1.19,5.5 -2.75,13.75 2.93,13.75 4.58,0 6.42,-4.4 7.24,-8.25 h 13.11 c -1.28,5.04 -3.76,9.17 -7.52,12.01 -3.57,2.84 -8.52,4.49 -14.57,4.49 -16.68,0 -16.77,-10.17 -13.66,-24.66 2.66,-12.65 6.78,-23.46 23.83,-23.46 17.41,0 16.96,11.27 13.38,26.12 z m 13.38,-7.24 c 0.92,-4.49 2.47,-10.91 -3.67,-10.91 -5.96,0 -7.33,6.97 -8.16,10.91 z"
   id="path8" />&#10;	</g>&#10;	&#10;</g><path
   class="st3"
   d="M 71.09991,75.453538 V 236.5405 H 232.18686 V 75.511525 Z M 217.11033,221.46396 H 96.96196 l 38.2712,-38.48381 c 14.67063,9.78041 34.73401,8.21477 47.66504,-4.73558 l 15.30848,-15.28915 -10.05102,-10.05102 15.11519,-15.09586 -10.51492,-10.53425 -15.11519,15.11519 -12.3125,-12.3125 15.09586,-15.11519 -10.51491,-10.51491 -15.11519,15.09586 -10.05102,-10.05103 -15.30848,15.28916 c -12.93103,12.95035 -14.49667,32.99441 -4.73558,47.68436 l -38.5418,38.75442 V 90.510741 l 130.95321,0.0387 z"
   id="path9"
   style="stroke-width:0.999999" />&#10;<g
   id="Guidelines"
   class="st4"
   transform="translate(-163.84651,-43.94)">&#10;	<g
   class="st5"
   id="g9">&#10;	</g>&#10;	<g
   class="st5"
   id="g10">&#10;	</g>&#10;	<g
   class="st5"
   id="g11">&#10;	</g>&#10;</g>&#10;<g
   id="Ebene_1"
   class="st4"
   transform="translate(-163.84651,-43.94)">&#10;</g>&#10;</svg>
